<svg width="16" height="17" viewBox="0 0 16 17" fill="none" xmlns="http://www.w3.org/2000/svg">
<g id="telegram">
<path id="Vector" d="M9.80265 13.2498L8.02939 11.2337C7.15152 10.2356 7.04752 9.79696 7.10532 9.70242L7.77085 9.16642L10.4684 7.05642C10.6859 6.88629 10.7243 6.57206 10.5542 6.35455C10.3841 6.13704 10.0698 6.09864 9.85225 6.26877L7.15192 8.38089L6.33985 9.04369C6.15027 9.24716 6.02937 9.59509 6.16123 10.0899C6.28428 10.5516 6.62943 11.1619 7.36432 11.9997L7.09292 12.535C6.91759 12.7786 6.75485 13.0049 6.60506 13.16C6.45622 13.314 6.18577 13.5405 5.80908 13.4656C5.43735 13.3916 5.27053 13.0843 5.18794 12.8871C5.10406 12.6868 5.03301 12.4151 4.95593 12.1204L4.6216 10.8428C4.43589 10.1331 4.37177 9.92909 4.25093 9.77896C4.23567 9.76002 4.21978 9.74169 4.20331 9.72409C4.07573 9.58749 3.89555 9.50342 3.23559 9.23889L3.19943 9.22436C2.54904 8.96369 2.01329 8.74896 1.63857 8.53796C1.27555 8.33356 0.883518 8.03642 0.838418 7.53502C0.831412 7.45709 0.831532 7.37869 0.838778 7.30076C0.885418 6.7995 1.27842 6.5036 1.64209 6.3004C2.01747 6.09066 2.55388 5.87771 3.20507 5.61918L11.1945 2.44717C12.0117 2.12268 12.6799 1.85735 13.205 1.73638C13.7403 1.61306 14.2933 1.6 14.7267 2.00083C15.1515 2.39375 15.2023 2.94728 15.1494 3.50514C15.0969 4.05862 14.9242 4.77844 14.7112 5.66636L13.0981 12.391C12.9623 12.957 12.8477 13.4349 12.7103 13.7816C12.5715 14.1318 12.3488 14.5079 11.8989 14.6269C11.4435 14.7473 11.0672 14.5228 10.7812 14.2808C10.5003 14.043 10.1799 13.6788 9.80265 13.2498Z" fill="#FFFBF4"/>
</g>
</svg>
