<svg width="16" height="17" viewBox="0 0 16 17" fill="none" xmlns="http://www.w3.org/2000/svg">
<g id="new-twitter-ellipse" clip-path="url(#clip0_164_7320)">
<path id="Vector" fill-rule="evenodd" clip-rule="evenodd" d="M7.99992 0.993652C4.04188 0.993652 0.833252 4.20228 0.833252 8.16032C0.833252 12.1184 4.04188 15.327 7.99992 15.327C11.958 15.327 15.1666 12.1184 15.1666 8.16032C15.1666 4.20228 11.958 0.993652 7.99992 0.993652ZM4.66658 4.32699C4.47883 4.32699 4.30689 4.43218 4.22141 4.59936C4.13593 4.76654 4.15131 4.96751 4.26125 5.11973L6.80765 8.64552L4.31303 11.1401C4.11777 11.3354 4.11777 11.6519 4.31303 11.8472C4.5083 12.0425 4.82488 12.0425 5.02014 11.8472L7.40072 9.46665L9.07605 11.7864C9.17005 11.9166 9.32085 11.9937 9.48139 11.9937H11.3333C11.5211 11.9937 11.693 11.8885 11.7785 11.7213C11.8639 11.5541 11.8485 11.3531 11.7386 11.2009L9.19218 7.67512L11.6868 5.18054C11.8821 4.98528 11.8821 4.66869 11.6868 4.47343C11.4915 4.27817 11.175 4.27817 10.9797 4.47343L8.59912 6.85399L6.92379 4.53424C6.82979 4.40409 6.67898 4.32699 6.51844 4.32699H4.66658Z" fill="#FFFBF4"/>
</g>
<defs>
<clipPath id="clip0_164_7320">
<rect width="16" height="16" fill="white" transform="translate(0 0.160156)"/>
</clipPath>
</defs>
</svg>
