<svg xmlns="http://www.w3.org/2000/svg" width="692" height="857" viewBox="0 0 692 857" fill="none">
  <path d="M783.034 27.9569L911.869 48.5159M911.869 48.5159L1039.03 76.8386L1160.75 112.062L1273.56 153.061L1374.39 198.564L1389.63 207.142L1460.76 247.158L1479.06 290.169L1479.63 344.49L1462.17 402.55L1429.07 456.08L1385.1 497.438L1336.55 520.896L1259.62 481.12L1170.45 443.644L1071.22 409.57L964.538 379.93L853.379 355.609L740.904 337.326L630.297 325.585M911.869 48.5159L905.617 83.9313L895.917 136.527L884.157 198.947L872.014 262.11L861.259 316.887L853.403 355.585L849.475 373.149M911.869 48.5159L913.904 34.8339M793.525 15.6885L675.11 4.33063L561.988 1.02391L457.249 5.74436L430.208 9.3147L363.575 18.1326L323.936 30.2332L238.621 50.8882L169.378 78.2524L117.284 111.343L77.7879 146.735L55.1539 196.311L19.7539 234.818L3.01191 276.99L1.14371 331.264L20.4964 383.284L58.555 425.84L110.098 453.013L167.965 461.04L224.178 448.891L238.741 421.503L266.141 396.966M266.141 396.966L289.35 384.818L297.517 380.529L300.176 379.139L301.829 378.276L305.062 376.575L306.236 375.952L317.732 372.238L318.307 372.046L327.193 369.195L331.289 367.877L336.342 366.248L342.139 364.379L346.689 362.917L358.473 359.107L387.886 353.5L421.968 347.006L461.44 342.957L469.2 342.55L550.276 341.136L646.536 345.736M266.141 396.966L212.227 404.682M1347.11 574.163L1347.61 575.026L1350.61 587.318L1360 625.681L1392.57 671.256L1440.47 703.173L1497.19 716.927M1497.19 716.927L1554.89 710.577L1605.62 684.986L1642.36 643.748L1650.81 619.475L1660.18 592.613L1662 547.685L1645.19 499.331L1609.12 448.532L1553.74 396.487L1479.63 344.514L1388.02 294.051L1280.89 246.607L1160.89 203.668L1031.31 166.599L895.917 136.599L758.772 114.602L624.022 101.232L495.619 96.7987L377.179 101.232L271.794 114.171M1497.19 716.927L1483.3 749.227L1455.52 777.669M1497.19 716.927L1496.23 681.32L1479.78 643.053L1447.52 602.941L1399.57 561.895L1348.29 560.888L1324.43 545.505L1317.68 541.168L1290.28 523.508L1252.53 505.249M708.785 808.46L618.417 787.925L608.813 786.487M764.568 535.297L767.322 535.824L847.847 551.16L931.317 562.733L1013.66 569.826M1219.74 487.326L1243.71 499.642L1290.28 523.556L1336.55 520.992L1399.54 561.967L1452.74 542.222L1500.4 504.243L1535.73 453.276L1553.69 396.559L1551.9 342.118L1530.79 297.502L1493.62 268.676L1474.65 255.066L1459.42 244.139L1427.59 221.28M417.37 412.805L426.375 418.029L447.476 429.554L484.529 448.819L548.599 476.519L617.818 501.487L690.966 523.34L766.795 541.767M1590.79 503.931L1535.7 453.276L1462.13 402.645L1371.28 353.428L1265.1 307.086L1146.28 265.034L1018.04 228.636L884.109 199.043L748.473 177.19L615.208 163.7L488.242 158.883L371.12 162.693L266.931 174.77L178.072 194.49L106.29 221.04L52.663 253.412M1305.89 539.682L1311.26 543.133L1314.27 543.899L1322.83 548.189L1348.26 560.96L1355.09 566.735L1392.69 598.508L1447.47 603.037L1503.87 586.959L1554.03 552.334L1590.82 503.955M178.719 526.503L232.657 509.442L277.853 475.609L308.08 429.746L299.601 401.136L304.942 376.671M329.947 604.235L367.479 565.345L393.37 517.398L404.029 467.126L398.089 421.575L376.581 386.926M376.581 386.926L346.594 362.989M376.581 386.926L417.346 412.781L426.351 418.005L459.763 434.85L482.517 444.698L529.055 464.85L546.539 471.152L603.831 491.831L616.333 495.569L682.75 515.433L690.391 517.278L764.52 535.297L766.819 541.743L844.086 556.455L921.521 567.214L997.854 573.804L1071.79 576.104L1142.09 573.995L1187.21 569.467L1208.29 566.735L1222.01 564.722M300.08 379.211L295.625 383.165L285.063 392.558L270.955 418.412L224.106 448.939L222.238 478.46L232.633 509.419L254.644 541.12L287.41 572.917L329.971 604.211M52.7109 253.316L70.9139 309.89L107.296 358.077L156.707 391.168L212.227 404.682M212.227 404.682L255.339 381.823L301.996 376.455M212.227 404.682L183.054 431.328L167.965 461.016L166.719 492.957L178.767 526.407M1587.94 722.342L1605.62 684.962L1606.41 643.628L1589.4 599.083L1554.08 552.238L1500.45 504.171L1429.1 456.104L1341.24 409.355L1238.8 365.289L1124.32 325.249L1000.87 290.505L872.014 262.158L741.575 241.072L613.411 227.845L491.236 222.765L378.473 225.832L278.045 236.735L192.275 254.922L122.864 279.626L70.8899 309.914L36.7833 344.802M1310.35 543.324L1266.56 556.335M1266.56 556.335L1221.99 564.626L1208.27 566.639L1169.51 569.922L1093.49 572.222L1013.64 569.778L997.83 573.732L982.285 596.471L969.208 635.193L960.466 684.626L957.352 737.773L960.322 787.038L968.897 825.473L981.806 847.829L1069.3 852.118L1152.63 851.711L1230.33 846.487L1300.93 836.423L1362.94 821.519L1407.28 823.292M1266.56 556.335L1234.42 580.728L1212.65 620.96L1204.41 671.615L1210.97 725.673L1231.45 775.537L1262.95 814.211L1300.98 836.375L1340.21 839.203M1320.53 551.951L1297.41 590.577L1289.25 642.142L1299.4 696.104L1326.54 744.962L1366.92 781.911L1414.89 801.871L1463.78 802.182L1508.16 776.16L1554.51 755.169M675.134 4.28274L656.308 15.7364L638.416 49.4744L624.022 101.184L615.255 163.628L613.411 227.821L618.728 284.443L630.345 325.561M1051.84 598.724L1036.44 637.542L1027.86 687.19L1027.39 740.697L1035.07 790.417L1049.78 829.331L1069.35 852.142L1091.02 856M271.794 114.099L266.955 174.674L278.045 236.711L303.457 291.367L339.456 330.976L380.868 350.265L421.92 347.006M38.7952 466.767L74.6503 503.452L104.949 543.732L151.007 561.487L203.341 560.601L254.692 541.048L297.948 505.513L327.073 458.955L338.139 407.893L331.241 367.901M1051.84 598.7L1117.85 596.855L1179.12 590.84L1234.44 580.705L1282.68 566.519L1318.66 550.249M1539.03 745.465L1554.94 710.577L1554.87 672.022L1538 630.497L1503.97 586.887L1452.81 542.174L1385.15 497.486L1302.18 454.043L1205.68 413.069L1098.04 375.832L982.166 343.46L861.307 316.959L738.988 297.118L618.752 284.49L504.073 279.387L398.089 281.783L303.505 291.439L222.55 307.853L156.803 330.353L107.32 358.125L74.5784 390.281L58.579 425.864L58.8664 463.915M269.925 661.096L303.218 670.321L342.139 661.096L381.323 634.474L415.262 594.003L439.117 545.361L449.536 495.425L445.177 451.216L426.854 418.772M1207.45 567.406L1179.12 590.936L1159.33 630.497L1151 680.768L1155.38 734.73L1171.88 784.762L1198.13 823.796L1230.37 846.511L1264.07 850.034M1312.53 545.145L1282.68 566.567L1259.09 607.637L1250.9 658.724L1259.4 712.805L1283.47 762.286L1319.71 800.265M1207.76 482.246L1218.92 487.398L1259.67 481.144L1302.16 454.019L1341.27 409.355L1371.35 353.356L1388.04 294.051L1389.05 239.946L1374.42 198.588L1346.49 175.489M1319.69 800.265L1367.02 781.911L1403.66 759.411L1428.47 733.029L1440.45 703.173L1438.8 670.345L1390.42 640.729L1375.3 608.141M562.012 1L535.426 12.1422L512.169 45.4728L495.619 96.7268L488.266 158.788L491.236 222.717L504.026 279.291L524.719 320.577L550.228 341.112M148.516 583.867L190.958 598.628L239.507 594.818L287.482 572.821L328.151 535.585L355.815 488.332L366.665 437.677L359.36 390.664L342.115 364.331M1138.26 453.109L1170.47 443.596L1205.63 412.997L1238.8 365.217L1265.17 306.943L1280.89 246.535L1283.76 192.717L1273.56 153.037L1251.95 132.693M1357.58 596.663L1359.95 625.609L1350.63 652.134L1382.13 699.051L1428.47 732.981L1483.3 749.179L1539.01 745.417M306.212 375.952L305.134 376.072L301.876 377.342L299.673 401.016L268.728 446.232L277.901 475.489L297.948 505.489L328.127 535.609L367.551 565.249L415.214 593.883L470.039 621.032L530.923 646.264L596.717 669.147L666.224 689.347L738.245 706.551M738.245 706.551L811.584 720.497L885.019 730.944L957.352 737.701L1027.34 740.625L1093.73 739.618L1155.33 734.61L1210.92 725.625L1259.33 712.709L1299.42 696.008L1330.15 675.712L1350.58 652.11L1338.15 598.7L1342.56 570.353M738.245 706.551L726.629 753.516L716.33 789.051L708.761 808.34M738.245 706.551L749.526 654.794L758.844 605.673L764.879 566.16L766.843 541.647M344.797 696.655L372.772 703.388L406.041 691.719L440.052 662.965L469.991 620.984L491.595 571.671L501.798 522.022L499.259 479.059L484.505 448.628L459.763 434.682M1169.49 569.802L1142.04 573.804L1117.78 596.783L1100.13 635.888L1091.67 685.824L1093.68 739.594L1105.9 789.554L1126.52 828.66L1152.58 851.591L1180.39 855.449M1346.56 573.708L1338.13 598.652L1318.66 621.919L1330.13 675.665L1359.78 723.684L1403.57 759.291L1455.42 777.55M1346.92 573.995L1347.64 575.577L1357.48 596.591L1359.28 599.011L1366.01 608.045L1390.3 640.633L1392.43 671.136L1382.01 698.979L1359.73 723.684L1326.49 744.842L1283.31 762.166L1231.33 775.465L1171.76 784.618L1105.87 789.554L1034.93 790.321L960.25 786.942L883.103 779.562L804.782 768.348L726.557 753.492L649.721 735.209L575.52 713.812L505.199 689.61L440.028 662.965L381.203 634.307L329.947 604.067L286.069 628.436L242.022 635.026L203.868 623.141L171.366 600.113L148.396 583.844L104.829 543.684L71.2732 509.874L38.6754 466.719L21.3347 424.187L12.6403 401.423L2.34127 374.514L1 331.168L17.5504 290.385L52.5672 253.244L55.0342 196.216L109.236 162.549L181.808 134.826L271.674 114.051L291.673 63.5639L323.816 30.1374L423.501 17.0304L535.258 12.0943L656.164 15.6885L782.867 27.9089L793.381 15.6166L913.713 34.8099L1032.46 61.2876L1038.98 63.1805L1146.21 94.2588L1158.76 98.8354L1251.76 132.717L1270.28 141.08L1346.27 175.441L1370.94 189.339L1427.42 221.16L1460.59 247.11L1478.56 260.002L1530.65 297.358L1550.91 316.863L1583.2 347.917L1606.22 394.019L1641.74 444.89L1644.97 499.283L1626.65 553.173L1589.19 599.035L1537.74 630.425L1479.56 642.981L1422.75 635.097L1392.52 598.316L1355.93 578.907L1347.26 574.45L1346.87 574.091L1346.8 574.043L1346.44 573.732L1342.42 570.353L1332.88 562.326L1331.85 561.439L1328.45 558.588L1320.38 551.807L1318.42 550.153L1312.29 545.002L1311.09 542.941L1305.72 539.49L1281.44 523.867L1252.31 505.129L1218.66 487.278L1207.5 482.126L1138.02 453.061L1047.53 422.102L950.406 395.169L849.26 373.053L746.916 356.399L646.248 345.641L630.081 325.441L524.456 320.505L426.687 322.374L339.217 330.88L264.105 345.569L202.838 365.864L156.444 391.048L125.427 420.329L109.835 452.845L109.332 487.757L123.271 524.203L150.768 561.367L190.718 598.532L241.878 634.978L302.954 670.106L372.581 703.34L449.345 734.203L531.857 762.238L618.154 787.733L704.666 809.011L708.522 808.268L799.872 825.617L802.411 827.582L856.876 835.441L891.606 839.658L900.348 841.719L940.395 845.649L982.812 849.818L996.944 851.208L1017.54 852.214L1090.74 855.808L1180.2 855.401L1263.79 849.842L1339.93 839.083L1407.04 823.125L1463.56 802.038L1506.68 782.845L1518.94 775.681L1554.31 755.026L1587.68 722.222L1605.02 703.053L1623.15 682.997L1642.1 643.604L1643.58 600.042L1626.6 553.101L1590.6 503.74L1608.85 448.412L1606.15 393.947L1551.68 341.927L1478.8 290.073L1388.76 239.826L1283.5 192.669L1165.61 150.089L1038.33 113.428L905.354 83.8594L770.604 62.3179L638.153 49.4025L511.882 45.401L395.334 50.2412L291.529 63.54L202.91 84.6502L131.223 112.685L77.5484 146.639L42.316 185.361L19.4904 234.698L17.4067 290.361L36.5198 344.706L20.209 383.165L21.167 424.163L58.555 463.772L74.3629 503.38L123.224 524.251L178.455 526.336L203.053 560.529L239.22 594.794L285.877 628.46L341.827 660.952L405.801 691.743L476.529 720.353L552.695 746.351L632.979 769.355L716.043 789.027L800.567 805.081L885.211 817.278L968.609 825.377L1049.42 829.211L1126.28 828.66L1197.8 823.652L1262.61 814.139L1319.35 800.145L1362.66 821.399L1414.63 801.751L1455.16 777.574L1507.87 776.04L1538.65 745.369L1587.58 722.246M1047.41 422.126L1070.88 409.498L1097.63 375.736L1123.93 325.177L1145.97 264.89L1160.51 203.572L1165.49 150.113L1160.36 112.014L1146.04 94.2348M427.286 729.818L449.584 734.323L476.817 720.401L505.271 689.682L530.923 646.288L550.108 596.303L560.072 546.871L559.497 504.986M559.497 504.986L548.599 476.399L529.079 464.754M559.497 504.986L499.283 479.107L445.129 451.12L398.137 421.479L359.336 390.688L336.271 366.248M559.497 504.986L624.62 528.348L693.456 548.835L764.855 566.136L837.596 579.986L910.479 590.145L982.285 596.423L1051.79 598.676L1071.77 575.96L1093.49 572.15M783.034 27.9329L770.867 62.3658L758.772 114.506L748.497 177.07L741.551 241L738.916 297.022L740.904 337.254L747.131 356.447M515.738 759.818L532.073 762.31L552.958 746.375L575.568 713.859L596.693 669.147L613.315 618.54L623.064 569.275L624.596 528.348L617.818 501.343L603.831 491.711M950.574 395.241L964.514 379.882L982.07 343.388L1000.8 290.457L1018.04 228.516L1031.27 166.527L1038.57 113.476L1039 76.8147L1032.63 61.2876M704.905 809.107L767.586 821.016L800.088 826.455L891.606 838.939L981.806 847.781L997.183 851.327M203.987 623.213L228.322 637.158L269.925 661L293.901 672.43L344.869 696.727L366.88 705.569L427.309 729.842L445.991 736.192L515.786 759.89L530.061 763.963L572.191 775.992L608.836 786.439L618.992 787.182L633.291 769.45L649.817 735.329L666.248 689.419L680.235 638.213L689.768 589.043L693.504 548.907L691.037 523.268L682.822 515.385M931.341 562.685L921.545 567.142L910.527 590.193L899.797 628.987L890.887 678.252L885.091 730.992L883.247 779.658L885.57 817.35L891.917 839.802L900.659 841.863M318.331 372.07L319.433 378.109L338.211 407.893L366.737 437.725L404.173 467.054L449.584 495.353L501.942 522.118L560.191 546.895L623.207 569.323L689.84 589.019L758.939 605.697L829.332 619.091L899.845 628.963L969.304 635.145L1036.51 637.494L1100.27 635.936L1159.41 630.401L1212.74 620.912L1259.16 607.566L1297.58 590.481L1326.99 569.898L1332.17 561.463M317.828 372.19L319.505 378.037L308.271 429.578L327.217 458.883L355.935 488.284L393.586 517.23L439.213 545.193L491.81 571.671L550.276 596.232L613.507 618.492L680.355 638.093L749.67 654.746L820.279 668.165L890.983 678.157L960.609 684.506L1027.96 687.094L1091.84 685.824L1151.07 680.625L1204.51 671.543L1250.97 658.628L1289.41 642.022L1318.83 621.943L1326.97 569.874L1333.17 562.326M847.942 550.992L844.206 556.288L837.715 579.938L829.332 619.019L820.231 668.188L811.704 720.473L804.974 768.372L800.974 805.105L800.207 826.431L802.794 827.653M363.599 18.0847L327.049 26.9504L301.637 33.1086L283.17 37.5894L238.621 50.8402L203.173 84.7221L181.928 134.874L178.072 194.395L192.275 254.898L222.478 307.781L264.321 345.665L311.84 363.468L340.462 357.981L380.868 350.241L428.459 345.736L460.937 342.669M58.8185 463.82L109.547 487.853L166.671 492.933L222.262 478.364L268.68 446.232L270.955 418.34L292.152 388.053L295.625 383.093M36.7354 344.778L74.4826 390.233L125.619 420.449L182.982 431.328L238.669 421.503L272.44 400.393L281.446 394.762L285.063 392.51M1347.42 574.69L1356.62 585.76L1375.23 608.165L1422.89 635.193L1438.73 670.369L1496.16 681.344L1554.75 672.022L1606.34 643.652L1643.77 600.185L1661.93 547.709L1658.48 493.484L1641.86 444.962L1617.74 397.518L1605.64 380.121L1583.3 347.989M457.273 5.69647L423.669 17.0783L395.622 50.3131L377.203 101.16L371.192 162.573L378.521 225.784L398.089 281.687L426.974 322.446L461.44 342.933L469.2 342.526M169.426 78.2045L131.535 112.757L109.428 162.597L106.362 220.92L122.936 279.578L156.803 330.281L203.149 365.96L255.387 381.823L302.978 366.391L307.649 364.882L311.936 363.492L343.695 360.521L358.521 359.131" stroke="#00D3E9" stroke-opacity="0.16" stroke-width="1.08501" stroke-linecap="round" stroke-linejoin="round"/>
</svg>