<svg width="32" height="32" viewBox="0 0 32 32" fill="none" xmlns="http://www.w3.org/2000/svg">
<g id="ai-security-02">
<path id="Vector" d="M15.9977 2.66675C12.1984 2.66675 9.73497 5.35873 6.82153 6.33995C5.63691 6.73892 5.0446 6.9384 4.80488 7.21961C4.56517 7.50083 4.49499 7.91175 4.3546 8.73359C2.85233 17.5281 6.13587 25.6587 13.9667 28.8234C14.808 29.1634 15.2288 29.3334 16.0019 29.3334C16.7749 29.3334 17.1956 29.1634 18.0369 28.8234C25.8673 25.6586 29.1477 17.5281 27.6451 8.73359C27.5045 7.9116 27.4344 7.50061 27.1945 7.2194C26.9548 6.93819 26.3625 6.73881 25.178 6.34007C22.2635 5.35895 19.7972 2.66675 15.9977 2.66675Z" stroke="#00D3E9" stroke-width="1.5" stroke-linecap="round" stroke-linejoin="round"/>
<path id="Vector_2" d="M10 19.3333L12.4559 11.9657C12.5817 11.588 12.9352 11.3333 13.3333 11.3333C13.7315 11.3333 14.0849 11.588 14.2108 11.9657L16.6667 19.3333M20.6667 11.3333V19.3333M11.3333 16.6666H15.3333" stroke="#00D3E9" stroke-width="1.5" stroke-linecap="round" stroke-linejoin="round"/>
</g>
</svg>
