<svg width="32" height="32" viewBox="0 0 32 32" fill="none" xmlns="http://www.w3.org/2000/svg">
<g id="centralized">
<path id="Vector" d="M15.9999 9.33325C12.318 9.33325 9.33325 12.318 9.33325 15.9999C9.33325 19.6818 12.318 22.6666 15.9999 22.6666C19.6818 22.6666 22.6666 19.6818 22.6666 15.9999C22.6666 12.318 19.6818 9.33325 15.9999 9.33325Z" stroke="#00D3E9" stroke-width="1.5" stroke-linecap="round" stroke-linejoin="round"/>
<path id="Vector_2" d="M28.3512 3.64892L23.3334 8.66675M28.3512 3.64892C28.9374 4.23505 28.5556 6.63811 28.4046 8.00008M28.3512 3.64892C27.7651 3.06279 25.362 3.44453 24 3.5956" stroke="#00D3E9" stroke-width="1.5" stroke-linecap="round" stroke-linejoin="round"/>
<path id="Vector_3" d="M3.64892 28.3512L8.66675 23.3334M3.64892 28.3512C4.23505 28.9374 6.63811 28.5556 8.00008 28.4046M3.64892 28.3512C3.06279 27.7651 3.44453 25.362 3.5956 24" stroke="#00D3E9" stroke-width="1.5" stroke-linecap="round" stroke-linejoin="round"/>
<path id="Vector_4" d="M28.3512 28.3512L23.3334 23.3334M28.3512 28.3512C27.7651 28.9374 25.362 28.5556 24 28.4046M28.3512 28.3512C28.9374 27.7651 28.5556 25.362 28.4046 24" stroke="#00D3E9" stroke-width="1.5" stroke-linecap="round" stroke-linejoin="round"/>
<path id="Vector_5" d="M3.64892 3.64892L8.66675 8.66675M3.64892 3.64892C3.06279 4.23505 3.44453 6.63811 3.5956 8.00008M3.64892 3.64892C4.23506 3.06279 6.63811 3.44453 8.00008 3.5956" stroke="#00D3E9" stroke-width="1.5" stroke-linecap="round" stroke-linejoin="round"/>
</g>
</svg>
