<svg width="32" height="32" viewBox="0 0 32 32" fill="none" xmlns="http://www.w3.org/2000/svg">
<g id="security-lock">
<path id="Vector" d="M15.9975 2.66675C11.9872 2.66675 9.38683 5.35873 6.31154 6.33995C5.06111 6.73892 4.43588 6.9384 4.18286 7.21961C3.92983 7.50083 3.85574 7.91175 3.70755 8.73359C2.12183 17.5281 5.58779 25.6587 13.8537 28.8234C14.7418 29.1634 15.1858 29.3334 16.0019 29.3334C16.8179 29.3334 17.2621 29.1634 18.1501 28.8234C26.4154 25.6586 29.8781 17.5281 28.2919 8.73359C28.1437 7.9116 28.0695 7.50061 27.8165 7.2194C27.5634 6.93819 26.9382 6.73881 25.6878 6.34007C22.6113 5.35895 20.0081 2.66675 15.9975 2.66675Z" stroke="#00D3E9" stroke-width="1.5" stroke-linecap="round" stroke-linejoin="round"/>
<path id="Vector_2" d="M13.7827 13.8398C12.3428 13.8398 11.6228 14.8798 11.4628 15.5198C11.3028 16.1598 11.3028 18.4798 11.3988 19.4398C11.7188 20.6398 12.5188 21.1358 13.3028 21.2958C14.0227 21.3598 17.0627 21.3358 17.9427 21.3358C19.2227 21.3598 20.1827 20.8798 20.5827 19.4398C20.6627 18.9598 20.7427 16.3198 20.5427 15.5198C20.1187 14.2398 19.0627 13.8398 18.2627 13.8398H13.7827Z" stroke="#00D3E9" stroke-width="1.5" stroke-linecap="round"/>
<path id="Vector_3" d="M13.6667 13.278C13.6667 13.198 13.6777 12.7374 13.6795 12.158C13.6813 11.6285 13.6347 11.118 13.8875 10.6508C14.8347 8.76597 17.5547 8.95797 18.2267 10.878C18.3431 11.1941 18.3502 11.6952 18.3467 12.158C18.3423 12.7493 18.3547 13.278 18.3547 13.278" stroke="#00D3E9" stroke-width="1.5" stroke-linecap="round"/>
</g>
</svg>
