<svg width="285" height="320" viewBox="0 0 285 320" fill="none" xmlns="http://www.w3.org/2000/svg">
<g opacity="0.32">
<path d="M102.473 30.4167C56.7294 30.4167 27.0694 61.1222 -8.00821 72.3142C-22.2709 76.865 -29.4024 79.1403 -32.2885 82.3479C-35.1745 85.5555 -36.0197 90.2425 -37.7099 99.6166C-55.797 199.929 -16.2634 292.669 78.0191 328.766C88.1494 332.644 93.2138 334.583 102.523 334.583C111.83 334.583 116.896 332.644 127.025 328.766C221.301 292.668 260.797 199.929 242.706 99.6166C241.014 90.2409 240.169 85.553 237.282 82.3455C234.396 79.1379 227.265 76.8638 213.002 72.3156C177.91 61.1247 148.218 30.4167 102.473 30.4167Z" stroke="#00D3E9" stroke-width="1.5" stroke-linecap="round" stroke-linejoin="round"/>
<path d="M77.2099 157.861C60.7855 157.861 52.573 169.723 50.748 177.023C48.923 184.323 48.923 210.786 50.018 221.736C53.668 235.423 62.793 241.081 71.7355 242.906C79.9474 243.636 114.622 243.362 124.66 243.362C139.26 243.636 150.21 238.161 154.772 221.736C155.685 216.261 156.597 186.148 154.316 177.023C149.48 162.423 137.435 157.861 128.31 157.861H77.2099Z" stroke="#00D3E9" stroke-width="1.5" stroke-linecap="round"/>
<path d="M75.8855 151.453C75.8855 150.54 76.0102 145.287 76.0315 138.678C76.0513 132.639 75.5205 126.815 78.404 121.486C89.208 99.9877 120.233 102.178 127.898 124.078C129.226 127.683 129.306 133.399 129.267 138.678C129.217 145.422 129.358 151.453 129.358 151.453" stroke="#00D3E9" stroke-width="1.5" stroke-linecap="round"/>
</g>
</svg>
