<svg xmlns="http://www.w3.org/2000/svg" width="16" height="17" viewBox="0 0 16 17" fill="none">
  <path fill-rule="evenodd" clip-rule="evenodd" d="M5.85092 2.00292C6.07695 1.97846 6.29104 2.10956 6.37197 2.32203L6.67832 3.12614C6.73292 3.26944 6.76018 3.34109 6.81879 3.37671C6.87745 3.41233 6.95618 3.40325 7.11379 3.38508C7.41125 3.35077 7.70492 3.33336 7.99998 3.33336C8.29498 3.33336 8.58865 3.35077 8.88612 3.38508C9.04372 3.40325 9.12245 3.41233 9.18112 3.37671C9.23972 3.34109 9.26705 3.26944 9.32158 3.12614L9.62792 2.32203C9.70885 2.10956 9.92299 1.97846 10.149 2.00292C11.3003 2.12755 12.4593 2.38696 13.6155 3.21923C13.6997 3.27988 13.763 3.36526 13.7965 3.46352C14.5321 5.61863 14.9345 7.49947 15.0901 9.01134C15.2437 10.5041 15.1628 11.6935 14.8776 12.4305C14.8727 12.4431 14.8673 12.4556 14.8614 12.4678C14.6014 13.0051 14.2088 13.6175 13.7217 14.1038C13.2431 14.5816 12.6087 15 11.8719 15C11.6865 15 11.5269 14.9166 11.4409 14.8668C11.3349 14.8054 11.2263 14.7252 11.122 14.6387C10.912 14.4644 10.6809 14.232 10.4668 13.9803C10.2527 13.7287 10.0441 13.4443 9.88592 13.1629C9.83025 13.0637 9.80245 13.0142 9.80452 12.9579C9.80625 12.9109 9.82905 12.8583 9.86212 12.8248C9.90172 12.7847 9.96338 12.7695 10.0867 12.739C10.5855 12.6157 11.2538 12.433 11.5113 12.3006C11.7693 12.2023 11.8988 11.9134 11.8005 11.6553C11.7022 11.3973 11.4133 11.2678 11.1553 11.3661C8.93652 12.2113 7.06325 12.2113 4.84456 11.3661C4.58651 11.2678 4.29762 11.3973 4.19931 11.6553C4.10101 11.9134 4.23051 12.2023 4.48856 12.3006C4.97391 12.4855 5.44664 12.6337 5.91174 12.7453C6.03073 12.7739 6.09022 12.7881 6.12861 12.8237C6.16742 12.8597 6.19268 12.9175 6.19269 12.9704C6.19269 13.0227 6.16645 13.0694 6.11398 13.1629C5.95588 13.4443 5.74721 13.7287 5.53313 13.9803C5.31896 14.232 5.08793 14.4644 4.87791 14.6387C4.77364 14.7252 4.665 14.8054 4.55899 14.8668C4.47297 14.9166 4.3134 15 4.12799 15C3.39116 15 2.75687 14.5816 2.27819 14.1038C1.79112 13.6175 1.39853 13.0051 1.13853 12.4678C1.13262 12.4556 1.12721 12.4431 1.1223 12.4305C0.837132 11.6935 0.756192 10.5041 0.909805 9.01134C1.06539 7.49947 1.46783 5.61863 2.20339 3.46352C2.23693 3.36526 2.30022 3.27988 2.38447 3.21923C3.54064 2.38696 4.69968 2.12755 5.85092 2.00292ZM3.66659 7.5C3.66659 6.76521 4.25971 6.16667 4.9949 6.16667H5.00494C5.74013 6.16667 6.33325 6.76521 6.33325 7.5C6.33325 8.2348 5.74013 8.83334 5.00494 8.83334H4.9949C4.25971 8.83334 3.66659 8.2348 3.66659 7.5ZM9.66658 7.5C9.66658 6.76521 10.2597 6.16667 10.9949 6.16667H11.0049C11.7401 6.16667 12.3333 6.76521 12.3333 7.5C12.3333 8.2348 11.7401 8.83334 11.0049 8.83334H10.9949C10.2597 8.83334 9.66658 8.2348 9.66658 7.5Z" fill="#FFFBF4"/>
</svg>